<svg width="700" height="400" viewBox="0 0 700 400" fill="none" xmlns="http://www.w3.org/2000/svg">
<g clip-path="url(#clip0_204_2)">
<rect width="700" height="400" fill="#313131"/>
<path opacity="0.47" d="M780.544 223.502C819.344 237.309 801.855 243.973 737.36 243.872C646.282 243.804 555.036 237.636 486.711 227.607C454.165 221.354 459.597 217.359 493.359 221.565C547.784 238.817 602.698 270.91 645.335 317.936C674.605 371.118 681.049 423.48 667.579 460.758C638.819 471.51 598.679 451.157 554.286 404.324C504.797 351.958 458.031 312.894 417.571 307.869C376.615 343.554 343.472 406.534 319.546 468.67C295.621 499.734 282.042 484.019 277.884 431.699C274.841 340.197 287.779 328.722 280.032 392.849C256.631 430.993 215.836 447.363 155.207 440.17C81.2095 412.833 -2.07071 372.227 -81.4047 327.903C-140.082 282.083 -166.971 242.897 -151.958 212.018C-101.173 185.971 -23.5424 166.442 58.2889 150.841C113.552 137.034 126.192 123.865 87.3911 110.058C6.71749 96.2513 -84.2515 82.4569 -155.314 70.2256C-189.207 59.7884 -173.444 54.1959 -116.106 56.3136C-32.0612 63.2633 57.6118 79.709 134.186 104.247C188.088 127.29 213.061 148.076 213.345 157.324C191.779 146.424 160.915 113.689 130.589 61.1708C78.1078 -32.9738 112.816 93.268 147.241 68.6793C171.166 6.55212 196.89 -53.6339 225.512 -84C256.085 -73.6553 293.029 -26.7384 338.564 35.7502C388.934 92.7008 449.483 125.441 518.129 129.075C585.332 106.176 650.549 70.1878 703.474 35.1031C734.55 6.16976 737.943 -6.10359 708.957 -2.0741C657.298 14.9934 589.075 41.7208 522.57 71.9021C482.765 105.857 480.617 137.143 523.75 163.253C604.045 189.392 699.856 209.69 780.544 223.502Z" stroke="url(#paint0_linear_204_2)" stroke-width="1.5" stroke-linecap="round"/>
<path opacity="0.51" d="M755.788 155.656C793.584 168.48 782.692 175.631 729.438 178.207C648.961 181.833 561.756 183.228 487.869 185.497C439.676 193.177 423.534 207.157 435.598 231.082C471.989 264.2 518.099 307.533 562.237 357.076C615.854 420.72 626.317 429.039 592.956 363.815C561.545 319.1 527.841 292.465 495.9 297.919C462.604 337.126 433.931 397.11 411.717 454.384C389.502 484.708 374.787 474.607 366.181 430.77C356.228 370.383 349.522 315.73 342.43 283.671C329.019 281.364 308.967 304.864 277.688 341.878C234.511 383.299 177.1 413.635 107.115 426.661C33.861 422.904 -38.5851 402.66 -98.1073 372.425C-133.304 334.697 -137.09 296.642 -105.177 262.418C-47.5771 229.073 26.9732 201.594 98.8732 179.816C143.557 159.068 149.942 142.462 112.147 129.638C38.0913 116.819 -46.434 108.39 -116.871 104.957C-158.802 102.554 -158.802 106.705 -120.14 117.832C-52.5136 129.836 28.9973 146.777 108.055 164.748C175.622 175.228 222.017 177.068 246.474 164.021C250.085 134.197 239.273 88.6587 221.879 33.893C197.043 -16.4693 175.797 -51.4742 162.116 -58.571C149.28 -35.9151 145.974 11.4388 151.996 66.8726C159.036 105.768 173.882 113.277 196.097 82.9653C218.318 25.7037 246.853 -31.6923 281.714 -65.9577C317.588 -66.4703 361.303 -32.5453 412.641 21.565C464.832 79.6711 522.665 124.201 581.736 146.273C633.373 144.021 676.083 123.34 701.596 94.4445C706.255 61.7086 686.204 36.7838 641.767 23.4222C585.842 19.254 524.252 26.3844 472.906 40.9183C450.532 60.8641 463.179 82.7931 513.687 103.344C592.693 124.949 681.733 142.836 755.788 155.656Z" stroke="url(#paint1_linear_204_2)" stroke-width="1.5" stroke-linecap="round"/>
<path opacity="0.13" d="M731.033 113.63C767.54 125.462 762.472 135.521 719.929 144.828C650.869 155.458 570.537 167.866 495.55 184.396C436.822 205.316 402.79 233.279 393.827 268.944C408.79 307.835 438.736 350.336 474.443 390.698C514.925 420.837 548.257 436.489 570.588 431.766C586.403 408.581 589.854 369.429 583.177 324.335C571.127 289.898 553.078 275.608 532.225 289.94C509.828 331.226 487.592 387.669 467.089 440.098C446.578 469.435 428.769 464.33 412.481 428.867C394.664 375.315 375.406 320.903 351.918 280.826C323.048 263.364 285.828 269.914 238.407 293.814C184.462 329.399 121.692 363.777 54.328 389.068C-8.24502 404.392 -62.5104 405.093 -98.8281 393.841C-111.213 373.231 -95.5808 346.953 -51.8801 319.508C8.07173 289.671 76.7244 262.675 137.87 240.275C172.499 217.867 173.409 200.455 136.902 188.619C69.3852 176.782 -8.38335 171.085 -76.7812 171.169C-124.312 171.248 -137.665 176.715 -116.82 186.039C-67.578 192.976 0.521321 199.77 74.3799 202.144C146.477 195.156 206.225 177.467 249.605 146.635C276.748 105.836 288.595 57.427 290.073 9.52276C281.496 -26.7048 270.581 -43.8732 261.983 -35.0915C251.046 -3.69598 246.416 43.9772 249.743 92.9613C253.063 123.865 264.72 126.58 285.231 97.2513C305.734 44.8259 334.123 -9.21709 369.479 -45.9447C404.829 -55.7138 446.767 -34.6966 493.242 8.41769C537.387 62.1792 582.078 111.949 622.254 147.458C652.391 164.505 669.981 162.887 669.719 148.261C653.213 123.407 617.784 97.8984 567.042 77.2467C489.682 55.5866 437.317 59.4775 505.278 75.7299C581.583 88.7427 663.516 101.793 731.033 113.63Z" stroke="url(#paint2_linear_204_2)" stroke-width="1.5" stroke-linecap="round"/>
<path opacity="0.99" d="M706.277 119.348C741.212 130.197 741.161 143.298 708.636 159.047C651.349 175.702 580.097 196.552 508.074 222.317C444.168 249.931 397.308 282.549 370.455 318.466C364.106 352.223 374.263 383.572 394.694 407.144C424.779 418.556 454.777 415.11 479.867 395.034C503.88 363.979 518.995 325.159 524.987 288.032C527.842 265.263 523.087 262.431 512.355 283.805C500.45 325.777 484.665 378.202 465.866 425.812C447.066 453.922 426.14 453.153 402.594 425.737C377.874 380.076 348.43 328.823 312.993 284.742C274.426 255.775 228.352 246.502 175.368 254.75C121.299 277.856 64.3176 306.953 9.59345 334.731C-51.6981 367.916 -58.8627 374.723 6.25875 355.332C64.4996 337.067 125.049 317.961 175.084 300.427C200.349 282.146 196.592 267.057 161.657 256.208C100.584 245.355 29.8201 239.258 -35.2722 237.082C-85.999 234.157 -109.946 233.527 -105.053 232.989C-74.5096 228.699 -23.1711 220.611 39.3437 205.737C107.312 183.362 171.166 152.021 225.359 112.5C269.664 70.5072 301.14 28.5526 321.694 -5.85562C332.776 -25.4022 337.865 -25.8644 340.851 -4.85561C339.897 31.2711 341.2 76.3434 347.178 117.819C352.413 141.055 363.946 139.635 382.745 111.533C401.545 63.9272 426.716 13.7036 456.939 -24.0871C486.42 -41.2807 519.308 -32.2847 552.837 -1.56143C582.442 43.5109 608.311 92.0622 626.201 134.416C634.618 165.79 630.133 182.102 610.467 184.908C580.913 175.555 539.346 159.782 490.949 142.744C448.005 123.546 413.53 108.794 396.761 99.9783C405.652 93.016 440.302 91.9025 498.281 95.7051C570.632 100.419 645.204 108.499 706.277 119.348Z" stroke="url(#paint3_linear_204_2)" stroke-width="1.5" stroke-linecap="round"/>
<path opacity="0.85" d="M681.544 169.837C714.607 179.698 718.735 193.955 695.341 212.279C649.733 230.817 589.104 253.603 523.444 279.856C459.531 305.44 405.579 332.638 365.81 358.714C336.686 387 356.927 385.248 384.486 348.269C405.914 316.218 422.769 283.158 433.21 256.822C442.996 245.859 445.719 252.922 441.431 279.343C436.603 320.692 425.609 368.698 408.52 411.53C391.425 438.174 369.057 441.043 341.651 421.131C313.707 383.95 279.894 338.231 240.496 294.024C200.436 258.032 155.432 236.166 107.669 229.266C62.876 236.767 20.1219 253.977 -15.7808 275.452C-40.4926 300.327 -51.3777 321.629 -44.7374 336.865C-22.7633 348.462 15.8698 352.916 67.2446 351.437C120.374 346.794 171.283 338.579 210.287 328.651C227.092 317.806 219.498 307.003 186.435 297.137C131.689 287.276 68.1183 278.822 7.41652 271.07C-44.2204 262.397 -75.7982 252.67 -84.2296 240.22C-71.1529 224.611 -37.8568 203.913 9.26589 177.118C66.1306 146.681 125.369 111.218 181.28 73.4189C233.63 39.0149 277.469 10.1194 312.324 -7.64983C340.45 -11.0238 361.456 1.99742 377.642 30.7585C389.946 67.7381 400.89 107.84 412.605 141.214C423.315 157.32 436.771 152.454 453.867 125.811C470.948 82.9737 490.861 36.9729 512.384 -0.569862C532.902 -23.1837 553.041 -24.6333 570.363 -6.43972C583.789 27.1239 590.932 69.0239 589.155 111.344C580.636 149.895 561.342 178.98 531.387 197.287C497.873 205.27 458.905 204.669 419.828 198.963C390.493 188.089 372.516 177.135 371.962 168.639C392.917 159.479 434.215 154.631 492.441 154.694C559.74 154.967 626.776 159.971 681.522 169.833C681.537 169.835 681.544 169.837 681.544 169.837Z" stroke="url(#paint4_linear_204_2)" stroke-width="1.5" stroke-linecap="round"/>
<path opacity="0.24" d="M656.577 238.691C687.609 247.569 695.196 260.351 680.022 276.326C645.692 291.944 596.574 309.94 539.884 328.814C480.464 345.609 425.121 360.853 378.311 372.08C341.164 377.895 315.767 376.601 301.038 366.571C296.349 350.197 298.584 326.247 304.445 297.297C320.34 258.351 342.591 239.422 341.746 276.288C339.263 315.823 330.562 359.084 315.178 397.198C299.8 422.144 278.467 427.926 251.942 414.791C225.483 386.194 194.102 347.714 159.116 306.768C125.325 268.439 89.8302 238.569 55.3036 219.619C25.7427 212.077 1.4314 214.703 -14.0408 224.321C-19.4651 240.38 -12.3079 257.716 8.82163 273.347C39.6058 289.179 81.1585 300.579 129.308 307.024C174.72 312.007 215.086 312.528 243.474 309.289C252.721 305.432 242.011 298.877 210.979 289.999C162.356 281.125 106.023 270.347 50.6365 257.469C0.244599 243.968 -35.862 227.3 -54.3412 206.938C-56.1105 185.11 -40.0267 159.097 -9.85417 129.58C31.5457 100.272 79.4256 70.192 128.9 42.4982C179.729 21.2499 226.742 8.09416 268.004 6.38824C306.04 16.0943 337.902 37.9981 364.208 69.8138C387.791 104.256 407.756 137.685 425.267 162.862C441.933 172.576 457.733 165 473.117 140.063C488.495 101.957 502.722 60.4901 515.071 24.3802C526.56 -1.63292 534.584 -11.4566 537.649 -4.80525C538.006 16.1321 531.475 47.6579 517.138 84.062C499.584 122.252 474.654 156.731 443.986 184.74C414.673 206.405 385.024 220.443 359.636 228.308C345.481 230.758 343.195 230.136 356.235 228.724C385.993 225.228 430.851 223.38 487.184 224.502C548.505 225.266 607.955 229.817 656.577 238.691Z" stroke="url(#paint5_linear_204_2)" stroke-width="1.5" stroke-linecap="round"/>
<path opacity="0.23" d="M632.026 290.108C660.545 297.995 670.506 307.419 662.169 317.718C638.032 327.462 600.419 336.991 554.279 344.987C502.853 350.853 451.267 353.302 403.518 350.907C360.385 344.827 324.985 332.861 297.762 315.062C277.804 295.188 264.749 272.166 256.733 248.842C253.151 224.321 251.978 233.939 246.678 274.545C242.411 311.234 233.747 349.517 220.073 382.971C206.407 405.98 188.372 413.938 166.856 406.682C145.763 386.316 122.092 356.038 97.4171 320.961C74.7658 284.583 53.2796 251.796 35.2736 225.552C18.935 201.283 36.5842 199.081 75.0789 211.253C108.586 222.481 147.918 232.38 189.318 239.569C240.351 248.901 270.822 248.536 235.938 238.653C193.461 230.762 144.445 219.338 95.0726 204.678C47.6586 189.875 9.7755 171.681 -15.4896 150.597C-28.8721 129.735 -27.7945 106.84 -14.0553 83.4528C10.2196 62.6625 42.7731 44.2545 79.9936 30.8005C121.481 23.9937 163.099 25.2836 202.395 36.0149C241.559 54.0404 276.705 79.751 307.147 110.348C336.446 139.643 361.478 165.429 382.374 182.749C402.797 186.959 419.901 177.404 433.567 154.395C447.248 120.941 456.844 84.2553 462.21 50.6076C467.016 15.3002 448.275 23.0315 423.869 59.301C405.637 90.8395 383.656 123.218 360.087 153.429C340.778 181.572 324.425 204.867 314.384 223.102C314.879 237.657 326.056 248.208 349.449 256.015C384.733 261.691 430.407 266.511 483.092 271.645C537.736 276.225 589.526 282.213 632.004 290.104C632.018 290.107 632.026 290.108 632.026 290.108Z" stroke="url(#paint6_linear_204_2)" stroke-width="1.5" stroke-linecap="round"/>
<path opacity="0.43" d="M607.248 297.1C646.049 310.911 627.118 319.461 565.506 318.545C479.328 312.558 392.072 290.915 321.92 255.729C267.742 224.871 233.572 202.06 211.263 205.762C196.555 243.422 180.268 306.549 156.342 368.681C132.417 399.732 103.118 383.467 76.3604 334.264C57.2041 271.33 54.0369 217.934 76.8556 185.434C115.649 172.387 177.53 173.354 246.161 176.526C290.24 184.303 299.473 183.555 260.672 169.748C179.991 155.941 93.6456 130.378 31.1308 98.6757C-1.53185 71.5743 8.26111 49.0613 47.5131 44.0108C107.043 58.4144 171.713 97.1631 227.267 149.975C283.462 189.06 325.553 199.728 349.479 168.677C373.404 106.546 376.906 49.0151 362.169 21.481C348.081 27.897 320.748 65.3473 292.585 114.306C284.678 167.589 300.266 210.779 350.469 240.695C430.524 265.536 526.567 283.293 607.248 297.1Z" stroke="url(#paint7_linear_204_2)" stroke-width="1.5" stroke-linecap="round"/>
<path opacity="0.7" d="M582.522 256.116C619.007 267.952 612.389 268.855 571.309 258.889C506.734 247.897 433.13 226.745 365.912 201.783C303.841 186.98 255.888 184.476 221.231 203.997C191.502 245.548 167.621 301.961 147.117 354.386C126.607 383.723 111.411 377.908 105.601 344.538C104.713 294.553 120.665 243.292 155.854 202.598C196.199 171.933 248.047 154.063 297.594 143.614C323.638 137.92 321.942 131.139 285.456 119.302C217.947 107.47 144.197 91.7008 84.3476 76.8854C40.8653 66.8264 27.8105 66.2255 40.2028 81.3729C70.2005 106.554 111.324 145.261 151.624 186.572C195.288 211.27 230.274 212.296 250.784 182.967C271.295 130.542 275.394 78.919 267.269 46.0403C262.507 35.1955 253.384 50.242 250.26 80.5577C264.749 121.033 299.545 160.656 358.055 192.156C432.926 222.636 514.99 244.279 582.5 256.111C582.515 256.114 582.522 256.116 582.522 256.116Z" stroke="url(#paint8_linear_204_2)" stroke-width="1.5" stroke-linecap="round"/>
<path opacity="0.39" d="M557.766 188.514C590.822 198.375 593.407 198.161 570.137 190.114C527.652 183.56 473.387 173.102 418.597 164.895C362.14 166.736 313.285 180.211 275.511 208.821C239.652 249.376 212.734 297.268 195.645 340.1C178.557 366.744 172.907 368.798 179.154 349.832C187.308 315.692 209.494 274.801 243.554 236.611C275.94 200.526 312.076 172.669 342.037 153.042C352.784 136.202 343.268 123.525 310.212 113.663C255.466 103.802 195.259 97.6883 142.414 97.4362C96.3904 99.9699 69.8802 112.436 62.5774 135.592C67.1717 160.858 84.2311 191.283 106.293 218.195C131.98 229.935 155.753 223.892 172.841 197.253C189.937 154.42 198.732 110.52 202.657 77.1921C210.215 55.8094 219.818 52.7925 237.62 63.8726C267.32 85.0116 311.952 110.857 370.499 134.504C435.868 159.643 502.999 178.648 557.745 188.509C557.759 188.512 557.766 188.514 557.766 188.514Z" stroke="url(#paint9_linear_204_2)" stroke-width="1.5" stroke-linecap="round"/>
<path opacity="0.87" d="M532.909 129.554C561.48 137.445 570.028 140.412 560.81 140.424C538.115 142.378 504.601 145.122 467.358 152.215C425.849 165.942 386.794 188.102 354.757 218.72C322.619 254.17 298.431 292.335 284.765 325.793C271.091 348.811 269.22 355.933 277.673 348.613C286.01 330.041 303.725 303.692 327.315 275.679C346.646 245.519 365.65 218.787 378.326 198.094C377.525 178.051 363.436 163.627 334.866 155.736C292.366 147.845 246.001 147.24 203.239 153.605C161.679 160.626 131.252 175.047 113.654 194.867C101.647 221.527 123.498 239.683 143.491 211.506C157.158 178.047 170.577 143.08 185.066 113.411C201.994 88.5789 224.194 74.7887 253.697 71.4021C289.206 74.6501 334.137 84.2217 385.723 95.9362C438.503 109.596 490.41 121.668 532.909 129.554Z" stroke="url(#paint10_linear_204_2)" stroke-width="1.5" stroke-linecap="round"/>
<path opacity="0.56" d="M508.256 110.071C544.741 121.903 534.977 137.462 499.817 164.484C449.745 202.774 402.725 259.103 382.214 311.528C361.703 340.865 371.598 333.571 394.788 306.738C403.067 268.578 396.208 235.447 359.723 223.615C292.206 211.779 226.524 223.481 187.6 246.128C156.073 257.448 152.695 255.149 173.205 225.813C193.716 173.387 234.227 126.651 292.636 103.873C358.427 92.3647 440.739 98.2345 508.256 110.071Z" stroke="url(#paint11_linear_204_2)" stroke-width="1.5" stroke-linecap="round"/>
<path opacity="0.94" d="M483.478 140.168C523.422 155.95 480.915 225.388 453.575 297.238C426.228 329.041 424.4 297.6 384.457 281.818C290.298 266.04 224.005 271.897 251.352 240.094C278.693 168.244 389.32 124.39 483.478 140.168Z" stroke="url(#paint12_linear_204_2)" stroke-width="1.5" stroke-linecap="round"/>
</g>
<defs>
<linearGradient id="paint0_linear_204_2" x1="314" y1="-84" x2="314" y2="484.535" gradientUnits="userSpaceOnUse">
<stop stop-color="#F8A0A0"/>
<stop offset="1" stop-color="#624343"/>
</linearGradient>
<linearGradient id="paint1_linear_204_2" x1="314.719" y1="-65.9634" x2="314.719" y2="471.815" gradientUnits="userSpaceOnUse">
<stop stop-color="#F8A0A0"/>
<stop offset="1" stop-color="#624343"/>
</linearGradient>
<linearGradient id="paint2_linear_204_2" x1="314.542" y1="-48.3055" x2="314.542" y2="459.167" gradientUnits="userSpaceOnUse">
<stop stop-color="#F8A0A0"/>
<stop offset="1" stop-color="#624343"/>
</linearGradient>
<linearGradient id="paint3_linear_204_2" x1="313.542" y1="-32.7177" x2="313.542" y2="446.598" gradientUnits="userSpaceOnUse">
<stop stop-color="#F8A0A0"/>
<stop offset="1" stop-color="#624343"/>
</linearGradient>
<linearGradient id="paint4_linear_204_2" x1="312.959" y1="-18.9308" x2="312.959" y2="434.103" gradientUnits="userSpaceOnUse">
<stop stop-color="#F8A0A0"/>
<stop offset="1" stop-color="#624343"/>
</linearGradient>
<linearGradient id="paint5_linear_204_2" x1="316.555" y1="-6.82159" x2="316.555" y2="421.621" gradientUnits="userSpaceOnUse">
<stop stop-color="#F8A0A0"/>
<stop offset="1" stop-color="#624343"/>
</linearGradient>
<linearGradient id="paint6_linear_204_2" x1="320.025" y1="26.6037" x2="320.025" y2="409.279" gradientUnits="userSpaceOnUse">
<stop stop-color="#F8A0A0"/>
<stop offset="1" stop-color="#624343"/>
</linearGradient>
<linearGradient id="paint7_linear_204_2" x1="319.445" y1="21.481" x2="319.445" y2="384.514" gradientUnits="userSpaceOnUse">
<stop stop-color="#F8A0A0"/>
<stop offset="1" stop-color="#624343"/>
</linearGradient>
<linearGradient id="paint8_linear_204_2" x1="321.066" y1="42.529" x2="321.066" y2="373.342" gradientUnits="userSpaceOnUse">
<stop stop-color="#F8A0A0"/>
<stop offset="1" stop-color="#624343"/>
</linearGradient>
<linearGradient id="paint9_linear_204_2" x1="324.012" y1="57.5793" x2="324.012" y2="362.356" gradientUnits="userSpaceOnUse">
<stop stop-color="#F8A0A0"/>
<stop offset="1" stop-color="#624343"/>
</linearGradient>
<linearGradient id="paint10_linear_204_2" x1="337.293" y1="71.4021" x2="337.293" y2="351.372" gradientUnits="userSpaceOnUse">
<stop stop-color="#F8A0A0"/>
<stop offset="1" stop-color="#624343"/>
</linearGradient>
<linearGradient id="paint11_linear_204_2" x1="345.824" y1="97.6555" x2="345.824" y2="330.438" gradientUnits="userSpaceOnUse">
<stop stop-color="#F8A0A0"/>
<stop offset="1" stop-color="#624343"/>
</linearGradient>
<linearGradient id="paint12_linear_204_2" x1="372.475" y1="136.96" x2="372.475" y2="310.933" gradientUnits="userSpaceOnUse">
<stop stop-color="#F8A0A0"/>
<stop offset="1" stop-color="#624343"/>
</linearGradient>
<clipPath id="clip0_204_2">
<rect width="700" height="400" fill="white"/>
</clipPath>
</defs>
</svg>
